<?xml version="1.0" encoding="utf-8"?>
<!-- Generator: Adobe Illustrator 16.0.0, SVG Export Plug-In . SVG Version: 6.00 Build 0)  -->
<!DOCTYPE svg PUBLIC "-//W3C//DTD SVG 1.1//EN" "http://www.w3.org/Graphics/SVG/1.1/DTD/svg11.dtd">
<svg version="1.1" id="图层_1" xmlns="http://www.w3.org/2000/svg" xmlns:xlink="http://www.w3.org/1999/xlink" x="0px" y="0px"
	 width="694.49px" height="221.1px" viewBox="0 0 694.49 221.1" enable-background="new 0 0 694.49 221.1" xml:space="preserve">
<g>
	<g>
		<defs>
			<rect id="SVGID_1_" x="254.518" y="23.207" width="428.932" height="120.779"/>
		</defs>
		<clipPath id="SVGID_2_">
			<use xlink:href="#SVGID_1_"  overflow="visible"/>
		</clipPath>
		<path clip-path="url(#SVGID_2_)" fill="#E36833" d="M303.207,86.514c0.422,3.407,0.239,6.415-0.359,5.908
			c-0.199-0.168-0.821,0.064-1.368,0.512c-0.615,0.502-1.43,0.643-2.1,0.363c-1.348-0.564-1.825-0.653-4.199-0.778
			c-1.095-0.058-2.692-0.769-3.651-1.624l-1.704-1.522l1.521-1.217c0.842-0.674,2.403-1.379,3.5-1.583
			c1.095-0.203,2.126-0.61,2.312-0.913c0.181-0.296,0.852-0.547,1.461-0.547c0.608,0,1.472-0.42,1.878-0.914
			C301.92,82.476,302.801,83.228,303.207,86.514L303.207,86.514L303.207,86.514z M313.805,79.698
			c0.375,1.096,0.667,2.44,0.667,3.073c0,0.608,0.266,1.615,0.579,2.19c0.32,0.59,0.958,3.471,1.43,6.451
			c0.75,4.747,0.744,5.429-0.062,5.741c-1.331,0.518-3.875-1.267-5.794-4.067c-1.35-1.969-1.808-3.409-1.995-6.268
			c-0.147-2.252-0.626-4.132-1.217-4.778c-0.912-0.997-0.883-1.118,0.456-1.887c0.792-0.455,1.975-1.139,2.648-1.532
			C312.476,77.48,313.117,77.689,313.805,79.698L313.805,79.698L313.805,79.698z M307.866,24.319
			c-1.369,1.46-1.658,2.741-0.696,3.088c0.304,0.11,0.994,2.633,1.552,5.675c0.558,3.043,1.396,7.506,1.886,10.042
			c0.484,2.499,0.87,7.181,0.853,10.346c-0.018,3.165,0.134,8.26,0.334,11.258l0.365,5.478l-5.082,2.585
			c-2.8,1.426-6.406,2.874-8.033,3.226c-1.644,0.356-3.733,1.043-4.716,1.551c-0.973,0.504-1.765,0.75-1.765,0.547
			c0-0.207-0.791,0.058-1.825,0.609c-1.035,0.552-1.826,0.843-1.826,0.669c0-0.169-1.248,0.354-2.83,1.187
			c-1.583,0.834-3.031,1.491-3.286,1.491c-0.25,0-2.525,0.966-5.021,2.13c-2.495,1.165-5.489,2.309-6.604,2.526
			c-1.108,0.215-3.62,1.187-5.507,2.13c-2.007,1.004-4.468,1.735-5.841,1.735c-2.739,0-4.098,0.903-4.576,3.042
			c-0.368,1.646-0.597,1.479,5.671,4.134c1.521,0.644,3.118,1.62,3.593,2.195c1.366,1.654,5.17,0.696,7.969-2.006
			c2.921-2.82,10.332-6.757,12.719-6.757c2.837,0,3.226,2.738,1.278,9.007c-1.513,4.869-1.502,6.839,0.047,8.824
			c2.727,3.493,9.333,1.279,10.531-3.529c0.545-2.19,4.494-7.311,6.278-8.141c1.23-0.572,1.371-0.44,1.734,1.628
			c0.212,1.212,0.631,3.347,0.908,4.625c0.603,2.8,0.087,4.497-1.912,6.287c-5.477,4.903-7.545,6.466-12.415,9.371
			c-3.043,1.816-5.612,3.404-5.782,3.573c-0.167,0.167-1.947,1.099-3.956,2.068c-2.031,0.983-5.446,2.67-7.698,3.805
			c-2.251,1.134-4.695,2.037-5.507,2.037c-0.803,0-2.951,0.521-4.777,1.156c-1.825,0.638-3.59,1.007-3.924,0.822
			c-0.366-0.201-0.427-0.14-0.152,0.152c0.252,0.27-0.822,0.922-2.404,1.461c-2.496,0.85-2.869,1.199-2.926,2.738
			c-0.097,2.568,0.796,3.332,5.178,4.427c2.19,0.548,4.552,1.383,5.294,1.871c0.921,0.607,1.948,0.748,3.286,0.454
			c2.13-0.468,10.648-4.397,12.111-5.585c1.476-1.199,5.598-4.288,8.519-6.384c1.522-1.091,2.874-2.141,3.043-2.36
			c0.167-0.216,2.921-2.114,6.085-4.192c6.53-4.289,6.754-4.479,14.448-12.207c4.12-4.14,5.812-5.464,6.486-5.082
			c0.487,0.275,0.957,0.801,1.006,1.125c0.211,1.392,1.926,4.93,3.214,6.633c1.441,1.907,4.558,9.068,5.853,13.45
			c1.366,4.625,2.028,5.844,3.619,6.666c3.621,1.874,8.034-0.946,7.674-4.901c-0.105-1.156,0-2.189,0.238-2.343
			c0.238-0.154,0.493-1.279,0.578-2.557c0.085-1.277,0.38-2.563,0.67-2.921c0.284-0.351,0.709-5.993,0.942-12.505
			c0.359-9.98,0.275-12.283-0.525-14.483c-0.974-2.678-4.333-7.425-5.255-7.425c-0.953,0-1.298,2.252-1.591,10.345
			c-0.162,4.504-0.427,8.848-0.585,9.616c-0.339,1.639-1.475,1.218-1.475-0.548c0-0.608-0.26-1.156-0.548-1.156
			c-0.302,0-1.687-2.374-3.089-5.295c-3.566-7.424-4.14-8.778-4.472-10.528c-0.158-0.83-0.703-3.043-1.201-4.869
			c-0.5-1.834-1.105-5.203-1.339-7.455l-0.426-4.108l2.86-1.217c1.583-0.673,3.214-1.217,3.651-1.217
			c1.406,0,2.387-1.887,2.504-4.808l0.113-2.86l-2.464-0.152c-1.826-0.112-2.828,0.188-3.865,1.157
			c-2.15,2.01-3.54,1.369-4.021-1.857c-0.59-3.956-0.544-13.876,0.066-14.248c0.271-0.166,0.541-1.848,0.608-3.796
			c0.068-1.947,0.272-3.742,0.461-4.047c0.463-0.748,0.269-10.224-0.225-11.015c-0.224-0.357-0.487-1.095-0.565-1.582
			c-0.252-1.583-1.653-3.651-2.47-3.651c-0.426,0-0.791-0.253-0.791-0.548c0-0.3-1.309-0.686-2.89-0.852
			c-1.583-0.167-3.607-0.497-4.473-0.73C309.542,23.018,308.875,23.243,307.866,24.319L307.866,24.319L307.866,24.319z"/>
		<path clip-path="url(#SVGID_2_)" fill="#E36833" d="M436.231,84.993c-0.869,1.636-2.604,3.03-5.037,4.048
			c-2.07,0.865-2.3,0.858-2.838-0.093c-0.82-1.453,0.22-3.213,1.924-3.254c0.727-0.016,2.313-0.529,3.47-1.119
			C436.183,83.333,437.038,83.476,436.231,84.993L436.231,84.993L436.231,84.993z M439.568,77.143
			c-0.657,1.063-6.001,3.472-7.158,3.226c-1.248-0.266-1.427-2.496-0.315-3.957C433.602,74.429,440.81,75.134,439.568,77.143
			L439.568,77.143L439.568,77.143z M434.418,61.928c2.131,2.13,2.238,3.976,0.305,5.247c-1.34,0.882-1.765,0.845-5.173-0.439
			c-2.068-0.781-3.783-1.588-3.872-1.826c-0.171-0.454,5.699-4.746,6.489-4.746C432.436,60.164,433.445,60.954,434.418,61.928
			L434.418,61.928L434.418,61.928z M454.258,24.703c-2.162,0.333-3.214,2.477-3.631,7.406c-0.258,3.043-0.688,4.286-2.087,6.024
			c-2.35,2.921-2.894,3.009-3.805,0.609c-0.416-1.096-0.957-2.396-1.194-2.86c-0.461-0.913-3.703-2.113-4.254-1.575
			c-0.169,0.166,0.06,2.489,0.518,5.227c0.74,4.442,0.723,5.025-0.183,5.903c-0.948,0.919-1.005,0.912-1.005-0.122
			c0-2.982-4.064-6.654-5.781-5.224c-0.434,0.362-1.106,2.912-1.491,5.649c-0.571,4.077-1.021,5.347-2.454,6.938
			c-2.219,2.463-7.556,5.342-12.911,6.964c-5.052,1.529-5.247,2.474-1.096,5.304c2.313,1.577,3.495,1.986,5.265,1.82
			c2.008-0.187,2.421,0.025,3.438,1.765l1.155,1.978l-2.008,7.12c-1.819,6.451-2.26,7.369-4.687,9.767
			c-2.526,2.499-2.659,2.8-2.373,5.356c0.218,1.947,0.774,3.151,1.978,4.29c1.506,1.424,1.979,1.541,4.716,1.171
			c3.713-0.502,3.713-0.502,4.958-3.059c0.681-1.399,1.293-1.959,1.89-1.734c0.487,0.185,0.732,0.581,0.548,0.883
			c-0.191,0.314,0.03,0.404,0.517,0.213c1.151-0.454,2.842,1.308,2.828,2.952c-0.015,1.887-0.882,3.124-1.793,2.559
			c-0.487-0.301-0.634-0.232-0.38,0.18c0.541,0.884-2.48,2.456-5.402,2.809c-2.86,0.345-3.955,1.269-3.955,3.337
			c0,2.45,0.912,3.065,3.408,2.299c1.948-0.599,2.258-0.508,3.62,1.078c0.837,0.974,1.492,1.921,1.492,2.16
			c0,1.139-3.354,6.634-5.237,8.581c-2.295,2.374-2.679,3.987-1.031,4.349c2.007,0.441,4.442-0.659,7.789-3.52
			c3.955-3.382,6.799-7.351,7.353-10.261c0.55-2.902,1.837-3.855,6.704-4.965c5.174-1.179,8.958-3.036,11.097-5.441
			c0.92-1.034,2.309-2.129,3.206-2.525c1.094-0.484,1.778-1.461,2.221-3.164c0.568-2.191,0.498-2.594-0.64-3.617
			c-2.313-2.085-3.743-2.546-5.963-1.923c-1.157,0.324-2.982,0.406-4.139,0.185l-2.069-0.396l0.335,2.921
			c0.308,2.678,0.177,3.065-1.552,4.65c-1.765,1.618-4.686,2.437-4.686,1.313c0-0.708,4.746-9.372,6.401-11.685
			c1.88-2.626,1.991-6.754,0.282-10.528c-1.735-3.833-1.593-5.363,0.497-5.383c2.312-0.022,4.197-1.676,5.863-5.145
			c1.728-3.599,1.439-4.408-2.212-6.209c-3.59-1.769-4.663-2.081-5.032-1.459c-0.173,0.294-0.9,0.393-1.571,0.213
			c-1.119-0.301-1.212-0.639-0.912-3.316c0.327-2.921,3.444-8.398,4.776-8.398c0.301,0,1.994-1.461,3.739-3.225
			c5.239-5.295,6.391-11.322,3.115-16.31c-0.84-1.278-1.771-2.331-2.016-2.282C456.174,24.398,455.17,24.563,454.258,24.703
			L454.258,24.703L454.258,24.703z"/>
		<path clip-path="url(#SVGID_2_)" fill="#E36833" d="M665.184,52.026c1.946,0.225,3.659,0.627,3.822,0.896
			c0.457,0.765-0.416,2.391-1.632,3.04c-1.256,0.671-4.504-0.605-4.95-1.945c-0.124-0.37-1.501-0.669-3.083-0.669
			c-2.495,0-2.786-0.132-2.286-1.035C657.629,51.279,658.489,51.248,665.184,52.026L665.184,52.026L665.184,52.026z M659.115,29.005
			c-1.799,5.659-5.148,12.708-6.468,13.604c-0.787,0.534-2.255-0.033-2.29-0.886c-0.047-1.132-4.161-3.468-6.109-3.468
			c-2.212,0-2.852,1.278-1.766,3.53c0.44,0.913,0.738,1.886,0.671,2.19c-0.065,0.296,0.511,1.217,1.258,2.008
			c1.526,1.617,1.297,2.05-1.989,3.78c-1.793,0.944-2.092,1.423-2.251,3.614c-0.172,2.374-0.09,2.525,1.369,2.525
			c0.854,0,1.554-0.22,1.554-0.487c0-0.6,3.711-1.957,4.32-1.58c0.263,0.163,1.047,1.55,1.703,3.011
			c0.657,1.46,1.385,2.708,1.583,2.708c0.203,0,1.702-0.576,3.406-1.308c2.922-1.256,3.131-1.267,5.234-0.274l2.191,1.035
			l-1.918,1.187c-1.033,0.64-1.916,1.411-1.916,1.674c0,0.275-0.791,0.948-1.826,1.552c-1.096,0.639-1.825,0.797-1.825,0.395
			c0-0.365-0.304-0.481-0.669-0.256c-0.667,0.41-5.963-3.03-6.82-4.429c-0.26-0.426-1.213-0.792-2.066-0.792
			c-0.852,0-1.44,0.155-1.276,0.335c0.163,0.181-0.045,1.37-0.458,2.586c-0.657,1.947-1.053,2.277-2.92,2.435
			c-1.218,0.102-2.718-0.114-3.438-0.496c-1.523-0.808-3.651-0.234-3.651,0.982c0,0.482,0.312,1.46,0.718,2.251
			c1.497,2.921,1.716,3.518,1.716,4.686c0,0.628-0.974,1.937-2.13,2.864c-3.353,2.688-2.739,3.64,2.738,4.246
			c3.772,0.417,4.312,1.155,2.129,2.917c-1.033,0.835-2.234,1.488-2.769,1.505c-0.547,0.018-1.172,0.248-1.491,0.548
			c-0.612,0.58-8.276,3.743-9.067,3.743c-0.268,0-1.338,0.377-2.374,0.836c-3.6,1.598-12.231,3.96-15.942,4.365
			c-2.679,0.292-4.262,0.138-5.935-0.577c-2.19-0.935-2.352-0.922-4.047,0.322c-2.19,1.609-2.826,4.397-1.425,6.251
			c1.086,1.438,8.546,5.577,11.103,6.16c1.513,0.346,5.537-0.964,7.241-2.358c0.487-0.399,1.138-0.715,1.521-0.738
			c0.657-0.04,8.094-3.334,10.285-4.555c0.551-0.308,1.674-0.933,2.403-1.337c0.73-0.407,1.823-1.127,2.344-1.546
			c1.838-1.48,8.032-5.053,13.449-7.757c10.405-5.195,12.311-2.465,3.164,4.532c-1.157,0.885-3.229,1.9-3.713,1.819
			c-1.685-0.281-2.792,0.366-4.8,2.799c-1.856,2.252-2.253,3.204-2.228,5.356c0.069,5.782-0.437,7.76-2.162,8.46
			c-0.912,0.371-2.008,0.613-2.464,0.547c-0.427-0.064-0.646,0.171-0.456,0.486c0.209,0.349-1.127,0.92-3.135,1.338
			c-1.947,0.406-3.782,0.947-4.139,1.216c-0.353,0.27-2.86,0.556-5.598,0.64c-4.322,0.134-5.036,0.316-5.559,1.431
			c-1.426,3.042-1.25,3.928,1.269,6.422c2.434,2.409,3.867,2.868,5.841,1.868c3.287-1.664,8.549-3.814,9.92-4.057
			c0.855-0.15,2.616-0.712,3.834-1.221c1.218-0.511,2.532-0.769,2.859-0.565c0.926,0.576,0.67,7.929-0.305,8.736
			c-0.721,0.6-7.24,0.898-11.317,0.521c-1.318-0.123-1.505,0.102-1.4,1.685c0.313,4.686,0.813,5.607,3.47,6.387
			c1.385,0.407,4.198,1.526,6.329,2.519c4.502,2.099,6.858,2.224,9.613,0.512c3.692-2.293,3.896-2.967,3.896-12.947
			c0-5.05,0.28-9.527,0.638-10.192c0.354-0.657,1.279-1.187,2.069-1.187c0.791,0,1.566-0.341,1.735-0.762
			c0.17-0.426,0.328-0.466,0.359-0.092c0.058,0.697,7.247,0.197,8.526-0.593c0.979-0.604,0.828-4.701-0.227-6.102
			c-0.688-0.913-1.356-1.075-3.183-0.775c-3.529,0.58-7.672,1.497-8.946,1.981c-0.791,0.3-1.021,0.218-0.729-0.263
			c0.223-0.365,0.105-0.699-0.243-0.699c-0.804,0-0.804-4.503-0.001-7.364c0.581-2.069,3.554-5.416,4.808-5.416
			c1.46,0,8.154-3.714,10.041-5.571c1.157-1.139,2.901-2.794,3.955-3.753c2.132-1.939,2.611-5.13,0.975-6.478
			c-0.487-0.401-0.912-1.121-0.912-1.542c0-1.747-4.442-2.075-7.606-0.561c-3.894,1.861-3.774,0.574,0.304-3.294
			c2.19-2.078,4.905-4.657,6.085-5.782c2.313-2.203,7.886-5.541,8.398-5.03c0.171,0.171,0.974-0.218,1.825-0.882
			c0.853-0.665,2.057-1.187,2.739-1.187c1.909,0,4.515-1.887,5.797-4.2c1.466-2.639,1.14-5.66-0.896-8.337
			c-0.786-1.034-1.228-2.106-0.977-2.373c0.248-0.266,0.151-0.321-0.214-0.122c-0.379,0.207-1.429-0.426-2.425-1.461
			c-2.152-2.236-3.904-2.223-7.007,0.056c-1.399,1.027-2.736,1.684-3.043,1.496c-0.285-0.174-0.548,0-0.548,0.365
			c0,0.387-0.396,0.55-0.882,0.365c-0.486-0.185-1.047-0.075-1.248,0.244c-0.204,0.324-1.035,0.578-1.886,0.578
			c-0.913,0-1.363-0.256-1.127-0.64c0.219-0.352,0.791-0.489,1.277-0.304c0.487,0.185,0.734,0.076,0.549-0.243
			c-0.191-0.33,0.12-0.721,0.729-0.913c0.577-0.182,1.67-1.673,2.386-3.256c2.888-6.39,0.326-12.293-5.337-12.293
			C660.132,27.91,659.367,28.211,659.115,29.005L659.115,29.005L659.115,29.005z"/>
	</g>
	<path fill="#E36833" d="M394.775,32.656c-0.141,6.025-1.338,16.122-2.431,20.508c-0.865,3.469,0.021,9.634,1.422,9.904
		c0.574,0.111,1.197-0.289,1.4-0.897c0.893-2.678,3.363-7.391,4.689-8.946c2.284-2.677,4.042-6.683,3.792-8.642
		c-0.277-2.19-3.295-11.208-4.092-12.232c-0.345-0.442-1.529-0.791-2.686-0.791C395.349,31.561,394.795,31.851,394.775,32.656
		L394.775,32.656L394.775,32.656z"/>
	<path fill="#E36833" d="M337.172,43.993c-1.096,0.4-2.121,0.886-2.343,1.108c-0.217,0.216,0.503,2.069,1.582,4.077
		c1.798,3.347,1.934,3.973,1.491,6.876c-0.269,1.766-0.515,4.148-0.548,5.325c-0.055,1.887,0.141,2.154,1.704,2.337
		c2.617,0.308,4.114-0.265,6.451-2.468c4.922-4.639,4.582-8.633-1.397-16.362C343.102,43.584,339.544,43.124,337.172,43.993
		L337.172,43.993L337.172,43.993z"/>
	<path fill="#E36833" d="M619.688,52.617c-0.556,0.845-0.959,2.251-0.911,3.165c0.146,2.678,0.046,2.787-1.548,1.713
		c-0.791-0.532-1.866-0.983-2.343-0.983c-0.488,0-0.993-0.328-1.127-0.73c-0.129-0.387-0.73-0.544-1.276-0.334
		c-0.866,0.331-1.036,1.248-1.036,5.568c0,2.86-0.257,5.798-0.578,6.572c-0.326,0.792-0.723,2.1-0.912,3.013
		c-0.191,0.912-0.995,2.233-1.857,3.042c-0.852,0.8-1.523,1.671-1.528,1.978c-0.019,1.294,3.173,4.554,4.814,4.919
		c3.075,0.686,4.966-0.721,7.353-5.467c1.867-3.712,2.376-4.283,3.968-4.441c4.163-0.413,5.58-2.74,5.712-9.374
		c0.067-3.347-0.014-3.528-2.335-5.172c-1.338-0.95-2.831-2.433-3.371-3.347C621.496,50.67,620.979,50.649,619.688,52.617
		L619.688,52.617L619.688,52.617z"/>
	<path fill="#E36833" d="M529.292,53.652c-1.229,0.64-1.591,1.37-1.887,3.803c-0.214,1.765-0.099,3.516,0.274,4.229
		c0.351,0.669,0.681,1.354,0.73,1.521c0.051,0.173,0.422,1.096,0.854,2.13c0.866,2.069,0.499,9.821-0.56,11.807
		c-0.616,1.153-1.664,1.663-4.343,2.109c-0.471,0.078-1.886,0.496-3.164,0.933s-2.706,0.641-3.194,0.456
		c-0.487-0.185-0.883-0.13-0.883,0.122c0,0.253-1.216,0.503-2.739,0.561c-3.406,0.132-3.657,0.277-4.906,2.877
		c-0.997,2.069-0.997,2.069,1.042,4.686c1.139,1.461,2.294,2.792,2.618,3.013c0.319,0.219,2.678-0.661,5.294-1.979
		c2.617-1.317,5.813-2.752,7.181-3.224c2.313-0.8,2.464-0.785,2.464,0.244c0,1.777-4.138,8.36-6.267,9.969
		c-1.08,0.815-3.712,2.653-5.902,4.119c-3.714,2.484-3.968,2.806-4.139,5.233c-0.16,2.251,0.003,2.657,1.246,3.134
		c0.836,0.32,2.557,0.332,4.138,0.03c1.462-0.28,2.934-0.531,3.197-0.546c1.269-0.077,5.476-4.839,8.36-9.464
		c1.781-2.86,3.511-5.39,3.81-5.576c0.67-0.419,5.295,0.998,5.295,1.62c0,0.269,0.791,0.668,1.766,0.89
		c2.189,0.5,2.855,1.945,1.549,3.371c-0.738,0.806-0.84,1.399-0.383,2.25c1.076,2.009,12.181,2.556,12.34,0.61
		c0.217-2.678-0.287-6.408-1.018-7.547c-1.674-2.603-2.996-3.15-14.681-6.083c-2.104-0.528-2.675-1.584-2.042-3.776
		c0.723-2.51,1.616-3.232,7.276-5.89c2.495-1.172,4.925-2.613,5.358-3.178c1.119-1.461,0.701-4.454-0.734-5.238
		c-0.668-0.366-1.377-0.884-1.576-1.152c-0.446-0.604-4.831-0.365-4.455,0.244c0.238,0.385-2.306,2.374-3.036,2.374
		c-0.63,0-0.33-3.347,0.57-6.329c1.228-4.077,1.144-7.848-0.205-9.034c-0.912-0.804-7.025-4.14-7.545-4.119
		C530.894,52.858,530.145,53.209,529.292,53.652L529.292,53.652L529.292,53.652z"/>
	<path fill="#E36833" d="M300.476,54.747c0,0.764-10.894,6.025-12.476,6.025c-0.585,0-1.734,0.396-2.647,0.912
		c-0.879,0.498-2.374,1.19-3.286,1.521c-0.914,0.332-1.673,0.996-1.673,1.461c0,0.962,6.025,4.625,7.606,4.625
		c0.531,0,1.582,0.333,2.313,0.732c2.539,1.389,2.616,1.366,11.684-3.335c4.808-2.493,6.713-5.388,5.577-8.472
		c-0.224-0.609-0.531-1.501-0.69-2.009C306.369,54.565,300.476,53.221,300.476,54.747L300.476,54.747L300.476,54.747z"/>
	<path fill="#E36833" d="M393.22,67.73c-1.115,0.778-1.223,1.257-0.846,3.752c0.636,4.199-0.454,12.658-2.178,16.918
		c-1.301,3.212-3.881,15.883-5.093,25.012c-0.222,1.67-1.46,5.293-2.746,8.032c-2.8,5.964-2.701,7.74,0.697,12.658
		c2.23,3.226,2.416,3.347,5.114,3.347c4.478,0,4.856-0.791,6.701-13.996c0.399-2.86,0.926-5.445,1.18-5.782
		c0.246-0.328,0.581-1.795,0.729-3.194c0.149-1.399,0.609-2.991,1.004-3.468c0.403-0.487,0.659-1.237,0.573-1.674
		c-0.156-0.784,0.859-4.382,1.942-6.877c0.287-0.663,0.697-2.737,0.898-4.563c0.481-4.321,1.373-7.674,2.302-8.642
		c1.313-1.371,3.578-7.424,4.437-11.867c0.189-0.974-2.316-1.02-3.275-0.061c-0.84,0.84-2.556-0.304-2.556-1.704
		c0-1.467-4.26-7.34-5.842-8.055C394.437,66.742,394.654,66.729,393.22,67.73L393.22,67.73L393.22,67.73z"/>
	<path fill="#E36833" d="M274.91,106.11c-0.325,0.852-0.602,2.003-0.602,2.494c0,0.497-1.253,2.709-2.739,4.839
		c-2.166,3.103-2.739,4.454-2.739,6.45v2.525l2.313-0.388c3.956-0.664,6.576-1.572,8.703-3.016c1.655-1.124,2.142-1.921,2.434-3.99
		c0.275-1.947,0.125-2.766-0.608-3.313c-1.337-0.998-3.104-4.325-3.104-5.846C278.567,103.909,275.674,104.102,274.91,106.11
		L274.91,106.11L274.91,106.11z"/>
	<path fill="#E36833" d="M445.19,108.921c-0.804,0.497-0.122,3.578,0.791,3.578c0.364,0,0.463,0.232,0.243,0.579
		c-0.197,0.313,0.069,1.612,0.581,2.829c1.791,4.261,0.687,8.535-2.649,10.261c-1.766,0.913-2.75,2.467-2.177,3.433
		c0.158,0.267,2.146,0.473,4.397,0.456c2.251-0.017,5.207,0.262,6.541,0.616c3.081,0.817,4.832-0.221,5.713-3.385
		c1.064-3.827,0.742-5.539-1.866-9.92c-2.789-4.686-3.491-5.433-6.706-7.141c-1.217-0.647-2.141-1.309-2.011-1.44
		C448.479,108.349,445.92,108.468,445.19,108.921L445.19,108.921L445.19,108.921z"/>
</g>
<g>
	<g>
		<defs>
			<rect id="SVGID_3_" x="1.417" y="1.395" width="218.268" height="218.309"/>
		</defs>
		<clipPath id="SVGID_4_">
			<use xlink:href="#SVGID_3_"  overflow="visible"/>
		</clipPath>
		<path clip-path="url(#SVGID_4_)" fill="#1C2C6F" d="M104.844,1.542c-1.062,0.13-3.416,0.378-5.234,0.556
			c-17.469,1.7-34.71,7.998-49.872,18.213c-9.533,6.424-19.198,15.609-26.22,24.917C11.772,60.796,4.062,80.357,2.229,99.23
			c-0.162,1.66-0.438,4.464-0.612,6.2c-0.546,5.448,0.063,15.512,1.432,23.667c0.791,4.713,2.691,12.041,4.399,16.973
			c9.154,26.423,28.258,48.462,53.284,61.472c19.667,10.221,42.901,14.228,64.668,11.148c35.68-5.044,66.447-27.063,82.644-59.145
			c7.91-15.671,11.642-31.384,11.642-49.019c0-7.438-0.368-12.005-1.497-18.57c-3.871-22.511-14.97-43.457-31.566-59.577
			C168.829,15.1,146.726,4.692,122.066,1.986C117.326,1.465,107.565,1.213,104.844,1.542L104.844,1.542L104.844,1.542z"/>
		<path clip-path="url(#SVGID_4_)" fill="#FFFFFF" d="M117.959,5.696c23.089,1.741,44.498,10.681,61.719,25.777
			c29.822,26.139,42.424,66.298,32.85,104.679c-2.02,8.1-5.926,17.943-10.016,25.238c-2.13,3.801-7.345,11.532-10.108,14.988
			c-3.044,3.81-11.403,12.212-15.288,15.371c-29.181,23.725-67.698,30.244-102.663,17.378c-24.164-8.894-44.613-26.8-56.751-49.693
			c-17.823-33.616-15.917-74.387,4.96-106.133c4.783-7.275,8.927-12.275,15.2-18.331C56.104,17.355,78.696,7.429,104.707,5.601
			C107.709,5.39,114.543,5.439,117.959,5.696L117.959,5.696L117.959,5.696z"/>
	</g>
	<path fill="#0C3F21" d="M106.223,9.434c-8.707,0.654-14.044,1.476-20.528,3.161c-13.942,3.623-26.069,9.694-37.912,18.977
		c-3.831,3.003-12.515,11.644-15.66,15.584c-9.804,12.276-16.875,27.14-20.12,42.294c-1.634,7.629-1.94,10.964-1.94,21.077
		c0,9.809,0.175,12.001,1.541,19.15c2.727,14.298,8.747,28.166,17.463,40.228c5.934,8.21,15.048,17.278,23.042,22.927
		c14.637,10.345,30.475,16.354,48.603,18.449c3.941,0.454,16.726,0.45,20.665-0.008c12.95-1.505,23.611-4.7,35.103-10.521
		c11.407-5.776,22.012-13.922,30.839-23.685c3.372-3.728,8.871-11.736,12.41-18.073c5.999-10.741,10.065-23.229,11.79-36.205
		c0.616-4.629,0.706-18.603,0.15-23.145c-2.187-17.854-7.985-33.115-18.038-47.473c-6.206-8.867-14.942-17.604-24.34-24.337
		c-2.874-2.058-9.78-6.208-12.977-7.794c-10.704-5.314-22.4-8.752-34.247-10.07C118.373,9.559,108.847,9.238,106.223,9.434
		L106.223,9.434L106.223,9.434z"/>
	<path fill="#FFFFFF" d="M96.165,15.912c0,0.143-0.179,0.248-0.428,0.248c-0.247,0-0.485,0.155-0.564,0.373
		c-0.076,0.203,0.424,2.809,1.116,5.812c0.692,3.003,1.253,5.721,1.253,6.062c0,0.338-0.281,1.035-0.62,1.531
		c-1.67,2.452-5.748,2.613-6.957,0.273c-0.328-0.631-2.893-10.993-2.893-11.681c0-0.09-0.331-0.166-0.717-0.166
		c-1.88,0,0.993-1.312,2.976-1.36c0.677-0.017,0.634,0.544-0.055,0.723c-0.303,0.079-0.552,0.265-0.552,0.417
		c0,0.772,2.596,11.47,2.902,11.957c0.839,1.339,3.606,1.02,4.55-0.523c0.304-0.496,0.54-1.141,0.54-1.474
		c0-0.328-0.556-2.961-1.24-5.883c-0.685-2.919-1.24-5.352-1.24-5.428c0-0.076-0.317-0.082-0.704-0.013
		c-0.522,0.093-0.681,0.015-0.62-0.302c0.051-0.267,0.606-0.546,1.46-0.74C95.806,15.413,96.165,15.448,96.165,15.912L96.165,15.912
		L96.165,15.912z"/>
	<path fill="#FFFFFF" d="M110.216,14.643c0,0.255-0.276,0.413-0.715,0.413h-0.717l0.166,1.86c0.091,1.023,0.289,3.844,0.441,6.269
		c0.151,2.425,0.337,4.875,0.413,5.441c0.103,0.772,0.04,1.035-0.248,1.035c-0.214,0-2.092-2.811-4.229-6.337l-3.844-6.337
		l0.135,2.01c0.679,10.028,0.706,10.227,1.436,10.397c0.357,0.083,0.711,0.306,0.77,0.487c0.078,0.23-0.358,0.342-1.432,0.371
		c-0.854,0.023-1.686,0.053-1.86,0.068c-0.177,0.016-0.371-0.123-0.441-0.316c-0.075-0.209,0.11-0.344,0.47-0.344
		c0.329,0,0.666-0.195,0.759-0.441c0.199-0.523-0.616-12.91-0.878-13.336c-0.092-0.146-0.487-0.275-0.847-0.275
		c-0.357,0-0.673-0.129-0.673-0.276c0-0.361,1.101-0.61,2.23-0.501c0.896,0.085,1.079,0.323,4.23,5.531
		c1.816,3.003,3.315,5.417,3.341,5.386c0.135-0.15-0.685-10.166-0.854-10.441c-0.101-0.164-0.422-0.24-0.698-0.166
		c-0.274,0.074-0.57-0.027-0.643-0.221c-0.171-0.464,0.354-0.618,2.256-0.658C109.885,14.238,110.216,14.325,110.216,14.643
		L110.216,14.643L110.216,14.643z"/>
	<path fill="#FFFFFF" d="M121.307,14.685c0.275,0.071,0.483,0.267,0.483,0.455c0,0.224-0.441,0.3-1.379,0.233
		c-0.77-0.053-1.377,0.008-1.377,0.139c0,0.127-0.187,2.714-0.413,5.743c-0.228,3.032-0.415,6.025-0.415,6.655v1.144l1.295,0.238
		c1.556,0.285,1.516,0.816-0.055,0.732c-4.711-0.245-5.922-0.416-5.922-0.833c0-0.352,0.247-0.411,1.24-0.289
		c0.77,0.095,1.314,0.038,1.436-0.151c0.232-0.359,1.196-13.174,1.012-13.475c-0.072-0.118-0.698-0.221-1.36-0.221
		c-0.938,0-1.227-0.103-1.227-0.439c0-0.388,0.373-0.419,3.101-0.25C119.433,14.474,121.042,14.617,121.307,14.685L121.307,14.685
		L121.307,14.685z"/>
	<path fill="#FFFFFF" d="M129.063,15.686c1.489,0.388,1.957,0.924,0.937,1.07c-0.629,0.092-0.635,0.12-0.717,4.776
		c-0.046,2.59-0.008,4.979,0.084,5.344c0.137,0.55,0.58-0.11,2.63-3.912c1.352-2.507,2.467-4.711,2.467-4.876
		c0-0.162-0.194-0.373-0.413-0.455c-0.22-0.08-0.415-0.319-0.415-0.51c0-0.296,0.262-0.296,1.529,0
		c0.854,0.2,1.604,0.432,1.695,0.523c0.264,0.266-0.192,0.7-0.578,0.55c-0.556-0.215-1.119,0.664-4.576,7.167
		c-1.744,3.278-3.302,5.951-3.469,5.951c-0.426,0-0.662-3.526-0.662-9.892c0-5.07-0.025-5.325-0.552-5.462
		c-0.633-0.166-0.468-0.637,0.221-0.632C127.503,15.33,128.319,15.491,129.063,15.686L129.063,15.686L129.063,15.686z"/>
	<path fill="#FFFFFF" d="M144.521,20.113l3.857,1.474l0.082,1.695c0.064,1.321-0.004,1.694-0.316,1.694
		c-0.236,0-0.525-0.483-0.704-1.171c-0.164-0.633-0.478-1.398-0.684-1.666c-0.468-0.607-3.759-1.95-4.055-1.655
		c-0.329,0.331-2.17,5.088-2.047,5.292c0.065,0.106,0.822,0.436,1.676,0.73l1.555,0.536l0.772-0.964
		c0.418-0.523,0.846-0.888,0.938-0.799c0.264,0.265-1.626,5.103-1.931,4.934c-0.134-0.076-0.247-0.635-0.247-1.242
		c0-0.99-0.104-1.15-1.045-1.597c-2.08-0.983-2.106-0.965-3.436,2.535c-0.66,1.736-1.095,3.233-0.974,3.347
		c0.12,0.114,0.964,0.479,1.874,0.811c1.983,0.727,3.079,0.585,4.38-0.558c1.371-1.202,1.43-0.597,0.117,1.195l-1.108,1.516
		l-1.558-0.621c-0.862-0.344-2.756-1.082-4.243-1.654c-1.598-0.614-2.686-1.188-2.686-1.419c0-0.266,0.234-0.338,0.757-0.234
		c0.756,0.152,0.756,0.152,3.031-5.854c1.251-3.307,2.272-6.211,2.272-6.462c0-0.247-0.188-0.525-0.413-0.61
		c-0.497-0.19-0.557-0.725-0.083-0.725C140.502,18.639,142.398,19.303,144.521,20.113L144.521,20.113L144.521,20.113z"/>
	<path fill="#FFFFFF" d="M157.469,26.342c1.295,0.844,2.343,2.292,2.343,3.235c0,1.048-1.044,2.813-2.012,3.403
		c-0.504,0.308-1.377,0.538-2.039,0.538c-1.307,0-1.252-0.139-1.75,4.353c-0.279,2.507-0.265,2.895,0.131,3.334
		c0.681,0.755,0.213,0.9-0.97,0.299c-1.272-0.645-1.283-0.74-0.673-5.23c0.516-3.775,0.519-3.715-0.319-4.105
		c-0.387-0.178-0.741-0.294-0.772-0.249c-0.028,0.044-0.774,1.39-1.639,2.961c-1.394,2.535-1.531,2.917-1.143,3.197
		c0.468,0.339,0.622,1.048,0.194,0.897c-1.129-0.394-3.583-1.777-3.524-1.987c0.045-0.154,0.424-0.282,0.865-0.29
		c0.729-0.013,1.006-0.413,3.912-5.648c1.712-3.085,3.126-5.79,3.126-5.978c0-0.188-0.207-0.458-0.454-0.593
		c-0.247-0.135-0.371-0.386-0.27-0.552C152.671,23.605,154.992,24.725,157.469,26.342L157.469,26.342L157.469,26.342z"/>
	<path fill="#FFFFFF" d="M60.276,37.803c4.823,3.845,5.839,4.542,6.489,4.454c1.25-0.171,1.104,0.208-0.606,1.552
		c-1.238,0.978-1.66,1.187-1.776,0.88c-0.083-0.22-0.034-0.473,0.111-0.565c0.152-0.095,0.26-0.302,0.258-0.494
		c-0.004-0.386-3.139-2.95-3.606-2.95c-0.166,0-0.909,0.481-1.626,1.048l-1.322,1.046l0.743,1.682
		c0.978,2.204,1.354,2.632,2.149,2.44c0.358-0.085,0.633-0.033,0.633,0.122c0,0.415-2.503,2.234-2.811,2.045
		c-0.175-0.109-0.165-0.28,0.028-0.474c0.173-0.173,0.303-0.468,0.303-0.688c0-0.211-1.307-3.36-2.893-6.97
		c-2.519-5.73-2.85-6.657-2.549-7.136c0.19-0.304,0.438-0.551,0.552-0.551C54.466,33.242,57.136,35.295,60.276,37.803L60.276,37.803
		L60.276,37.803z"/>
	<path fill="#FFFFFF" d="M70.689,23.873c0.082,0.134-0.106,0.39-0.411,0.552c-0.302,0.164-0.565,0.451-0.565,0.62
		c0,0.175,1.49,3.003,3.308,6.282c1.816,3.279,3.305,6.115,3.305,6.295c0,0.544-0.412,0.304-6.584-3.812
		c-3.197-2.13-5.863-3.874-5.924-3.874s1.198,2.368,2.795,5.262c2.832,5.124,2.927,5.257,3.679,5.108
		c1.375-0.272,1.129,0.308-0.495,1.183c-0.938,0.504-1.672,0.744-1.818,0.595c-0.154-0.152-0.029-0.369,0.329-0.564
		c0.331-0.181,0.581-0.411,0.581-0.537c0-0.204-6.255-11.6-6.503-11.849c-0.061-0.059-0.414,0.028-0.772,0.19
		c-1.258,0.574-0.99-0.306,0.332-1.084l1.24-0.73l5.483,3.663l5.483,3.665l-1.006-1.832c-0.557-1.014-1.7-3.1-2.562-4.671
		c-1.558-2.837-1.558-2.837-2.438-2.68c-1.324,0.236-1.103-0.242,0.549-1.196C70.292,23.54,70.452,23.492,70.689,23.873
		L70.689,23.873L70.689,23.873z"/>
	<path fill="#FFFFFF" d="M167.527,32.749c0.688,0.35,1.607,1.145,2.067,1.788c0.453,0.633,1.05,1.162,1.322,1.169
		c0.624,0.015,0.616,0.042-0.386,1.668c-1.187,1.925-1.548,1.818-1.408-0.413c0.111-1.736,0.084-1.822-0.852-2.756
		c-0.75-0.75-1.185-0.964-1.955-0.964c-1.269,0-2.259,0.635-2.621,1.681c-0.322,0.926-0.09,1.708,1.455,4.903
		c0.548,1.129,1.001,2.417,1.001,2.839c0,1.9-1.63,3.887-3.471,4.233c-1.937,0.363-3.211-0.376-5.389-3.132
		c-0.143-0.183-0.51-0.331-0.812-0.331c-0.511,0-0.479-0.137,0.454-1.929c0.562-1.075,1.189-1.929,1.419-1.929
		c0.284,0,0.357,0.152,0.234,0.481c-0.097,0.263-0.249,1.062-0.333,1.75c-0.396,3.252,2.908,5.347,5.196,3.296
		c1.318-1.181,1.249-2.496-0.299-5.748c-1.666-3.5-1.604-4.781,0.299-6.214C164.975,31.996,165.874,31.908,167.527,32.749
		L167.527,32.749L167.527,32.749z"/>
	<path fill="#FFFFFF" d="M118.897,34.91c28.242,3.168,52.296,21.379,62.761,47.513c2.914,7.279,4.287,13.365,5.361,23.779
		l0.208,2.01l1.93-1.154c2.545-1.525,5.51-3.918,8.486-6.847l2.396-2.358v0.882c0,1.845-1.151,9.04-1.704,10.662
		c-1.931,5.648-4.999,9.225-9.979,11.632c-1.075,0.521-2.006,1.085-2.107,1.276c-0.098,0.19-0.124,5.953-0.055,12.813l0.124,12.467
		h1.502h1.502l2.948,4.548l2.949,4.545h1.473c0.799,0,1.431,0.107,1.377,0.234c-0.053,0.127-1.074,1.873-2.259,3.856l-2.163,3.624
		h-12.206h-12.206l-2.864,2.51c-6.854,6.005-17.333,12.661-25.018,15.896c-13.827,5.818-29.539,7.588-44.362,4.996
		c-8.597-1.502-16.893-4.424-24.577-8.649c-6.668-3.67-11.136-7.099-15.85-12.163l-2.693-2.893l-12.619,0.055L28.632,164.2
		l-2.217-3.554c-1.221-1.957-2.281-3.709-2.356-3.898c-0.101-0.254,0.289-0.345,1.474-0.345h1.613l2.065-3.98l2.068-3.983
		l1.376-0.082l1.379-0.083l0.069-12.811l0.068-12.814l-2.396-1.224c-5.763-2.948-9.296-8.583-11.324-18.063
		c-0.774-3.608-1.191-5.923-1.071-5.923c0.028,0,1.042,0.957,2.253,2.126c3.308,3.193,11.36,8.606,12.813,8.616
		c0.363,0.001,0.496-0.658,0.766-3.8c1.556-18.156,9.179-34.521,22.102-47.445c2.205-2.205,5.293-5,6.889-6.238
		c11.06-8.576,24.19-14.03,37.691-15.656C105.505,34.607,115.502,34.529,118.897,34.91L118.897,34.91L118.897,34.91z"/>
	<path fill="#FFFFFF" d="M47.783,39.992c-0.143,0.57,0.468,1.28,4.436,5.152c2.535,2.474,4.781,4.536,5,4.587
		c0.221,0.053,0.581-0.052,0.801-0.234c0.302-0.251,0.399-0.244,0.399,0.028c0,0.386-2.178,2.727-2.535,2.727
		c-0.122,0-0.147-0.317-0.055-0.702c0.145-0.62-0.124-0.974-2.247-2.963l-2.412-2.259l-1.734,1.792l-1.736,1.792l2.248,2.259
		c2.165,2.176,2.979,2.653,3.383,1.984c0.133-0.221,0.265-0.221,0.485,0c0.218,0.216-0.076,0.688-1.052,1.679
		c-1.356,1.379-1.853,1.543-1.581,0.525c0.169-0.638-1.748-2.716-6.874-7.452c-2.23-2.063-2.769-2.438-3.1-2.164
		c-0.218,0.183-0.54,0.244-0.715,0.137c-0.207-0.125,0.141-0.662,1.006-1.542c0.729-0.744,1.421-1.351,1.542-1.351
		c0.118,0,0.143,0.358,0.055,0.772c-0.148,0.687,0.069,0.993,1.971,2.795l2.134,2.026l1.723-1.902l1.721-1.899l-1.837-1.875
		c-1.946-1.983-2.581-2.356-3.177-1.862c-0.22,0.183-0.445,0.224-0.522,0.099c-0.188-0.302,2.295-3.144,2.588-2.963
		C47.834,39.261,47.872,39.634,47.783,39.992L47.783,39.992L47.783,39.992z"/>
	<path fill="#FFFFFF" d="M178.947,42.884c1.672,1.681,2.378,2.57,2.191,2.755c-0.185,0.185-0.482,0-0.896-0.551
		c-0.352-0.468-0.871-0.826-1.198-0.826c-0.633,0-9.865,8.663-9.865,9.256c0,0.198,0.379,0.786,0.841,1.31
		c0.464,0.524,0.723,1.023,0.58,1.115c-0.146,0.091-1.386-1.033-2.784-2.52c-1.396-1.489-2.379-2.729-2.204-2.783
		c0.179-0.055,0.73,0.305,1.255,0.813l0.936,0.909l1.433-1.35c4.574-4.314,8.212-8.047,8.212-8.431c0-0.248-0.304-0.721-0.691-1.079
		c-0.688-0.639-0.896-1.098-0.495-1.098C176.384,40.406,177.578,41.507,178.947,42.884L178.947,42.884L178.947,42.884z"/>
	<path fill="#FFFFFF" d="M38.448,49.746c-0.166,0.767-0.008,0.919,3.906,3.759c6.006,4.359,6.442,4.876,6.016,7.152
		c-0.382,2.039-3.098,4-4.749,3.427c-0.453-0.158-2.866-1.77-5.344-3.574c-4.354-3.166-5.251-3.647-5.625-3.022
		c-0.097,0.164-0.268,0.215-0.424,0.124c-0.143-0.082,0.259-0.896,0.875-1.778c1.137-1.624,1.763-1.922,1.449-0.688
		c-0.143,0.561,0.306,0.976,3.861,3.564c5.07,3.691,5.606,4.013,6.723,4.013c1.719,0,2.992-2.341,2.246-4.133
		c-0.243-0.582-1.695-1.809-4.892-4.132c-2.507-1.824-4.719-3.306-4.932-3.306s-0.455,0.179-0.539,0.399
		c-0.083,0.219-0.317,0.331-0.523,0.248c-0.274-0.113-0.114-0.51,0.597-1.503C38.203,48.753,38.703,48.55,38.448,49.746
		L38.448,49.746L38.448,49.746z"/>
	<path fill="#FFFFFF" d="M187.365,52.681c1.128,1.569,2.235,3.123,2.438,3.416c0.333,0.481,0.242,0.675-0.879,1.86
		c-1.379,1.461-1.944,1.461-1.039,0c0.325-0.523,0.581-1.192,0.581-1.516c0-0.854-0.581-1.983-1.02-1.983
		c-0.197,0-2.699,1.694-5.591,3.788c-4.024,2.912-5.236,3.929-5.236,4.396c0,0.329,0.137,0.687,0.303,0.784
		c0.221,0.131,0.221,0.263,0,0.483c-0.166,0.166-0.341,0.248-0.384,0.179c-0.046-0.067-0.683-0.978-1.4-1.997
		c-1.295-1.847-1.512-2.676-0.447-1.712c0.386,0.35,0.708,0.424,1.075,0.248c1.46-0.706,10.471-7.473,10.487-7.876
		c0.028-0.813-1.339-1.638-2.387-1.44c-1.461,0.275-1.816,0.267-1.929-0.05c-0.104-0.298,2.176-1.417,2.948-1.445
		C185.111,49.807,186.237,51.11,187.365,52.681L187.365,52.681L187.365,52.681z"/>
	<path fill="#FFFFFF" d="M30.865,60.353c0,0.504,1.198,1.562,5.799,5.126c3.36,2.602,5.696,4.595,5.551,4.739
		c-0.143,0.143-2.039-0.392-4.49-1.269c-2.343-0.836-4.268-1.483-4.298-1.445c-0.031,0.038,1.556,1.402,3.54,3.043
		c2.122,1.757,3.496,3.077,3.349,3.224c-0.146,0.146-3.019-0.724-6.957-2.107c-5.152-1.809-6.902-2.315-7.538-2.176l-0.825,0.179
		l0.791-1.405c0.774-1.377,1.428-1.792,1.307-0.827c-0.042,0.323,0.299,0.597,1.098,0.882c0.641,0.228,2.756,0.985,4.739,1.694
		c1.984,0.709,3.46,1.169,3.308,1.033c-1.931-1.746-5.675-4.627-6.421-4.939c-0.578-0.243-1.333-0.335-1.887-0.226l-0.924,0.179
		l0.742-1.516c0.715-1.461,1.187-1.756,1.187-0.744c0,0.384,1.019,0.868,4.547,2.149c2.506,0.912,4.509,1.623,4.464,1.584
		c-2.811-2.335-7.199-5.635-7.496-5.635c-0.221,0-0.462,0.131-0.565,0.304c-0.114,0.192-0.279,0.202-0.455,0.027
		c-0.175-0.175-0.061-0.688,0.308-1.406C30.38,59.583,30.865,59.381,30.865,60.353L30.865,60.353L30.865,60.353z"/>
	<path fill="#FFFFFF" d="M193.523,61.759c0.527,0.993,0.833,1.864,0.688,1.957c-0.15,0.094-0.414-0.041-0.62-0.317
		c-0.205-0.275-0.489-0.435-0.662-0.371c-0.331,0.122-5.01,5.31-4.896,5.426c0.118,0.118,6.853-0.778,7.128-0.949
		c0.133-0.082,0.171-0.455,0.08-0.814c-0.308-1.213,0.525-0.688,1.356,0.854c0.89,1.654,0.821,2.086-0.224,1.394
		c-0.64-0.424-0.978-0.424-4.78-0.002c-3.94,0.438-4.182,0.502-6.516,1.721c-2.425,1.269-2.425,1.269-2.259,2.178
		c0.272,1.481-0.338,1.046-1.354-0.965c-1.196-2.369-1.185-2.34-0.824-2.457c0.183-0.057,0.411,0.143,0.508,0.445
		c0.253,0.792,0.65,0.719,3.047-0.561c1.805-0.964,2.491-1.575,4.973-4.412c1.854-2.121,2.879-3.517,2.879-3.926
		c0-0.552,0.196-0.993,0.441-0.993C192.537,59.967,192.996,60.766,193.523,61.759L193.523,61.759L193.523,61.759z"/>
	<path fill="#FFFFFF" d="M85.062,186.764c0.884,0.841,0.789,1.299-0.614,2.951c-1.849,2.176-1.973,2.492-1.206,3.073
		c0.801,0.607,0.47,1.184-0.55,0.957c-0.711-0.159-0.819-0.063-1.363,1.204c-0.333,0.772-0.666,1.961-0.759,2.701l-0.166,1.321
		l0.841-0.964c0.456-0.523,0.844-1.052,0.85-1.156c0.03-0.556,0.568-0.138,0.568,0.44c0,1.212-3.239,5.124-4.243,5.124
		c-0.555,0-0.555,0.028,0.08-3.637l0.225-1.295l-3.775,0.16c-4.657,0.195-5.498,0.057-6.311-1.041
		c-0.348-0.47-0.526-0.954-0.399-1.074c0.129-0.122,0.951,0.008,1.833,0.289c1.042,0.333,2.52,0.522,4.257,0.55
		c2.286,0.036,2.708-0.027,3.019-0.455c0.359-0.494,0.473-1.211,0.191-1.211c-0.076,0-0.58,0.185-1.103,0.403
		c-1.737,0.725-2.396-0.17-1.046-1.417c0.983-0.909,0.715-1.305-0.993-1.467c-1.295-0.122-1.516-0.237-1.959-1.02
		c-0.614-1.09-0.356-1.297,1.023-0.815c0.596,0.209,1.625,0.46,2.313,0.568c0.691,0.106,1.792,0.361,2.48,0.574
		c2.564,0.787,2.764,0.732,3.928-1.098c0.559-0.882,1.248-2.23,1.5-2.949c0.255-0.715,0.532-1.322,0.607-1.322
		C84.368,186.16,84.702,186.423,85.062,186.764L85.062,186.764L85.062,186.764z"/>
	<path fill="#FFFFFF" d="M81.258,189.616c0.586,0.556-0.11,1.229-1.266,1.229c-0.938,0-2.287-0.976-2.287-1.652
		C77.705,188.757,80.735,189.12,81.258,189.616L81.258,189.616L81.258,189.616z"/>
	<path fill="#FFFFFF" d="M86.741,191.451c0.46,0.461,0.397,1.598-0.122,2.177c-0.567,0.633-1.018,0.667-1.487,0.109
		c-0.278-0.33-0.261-0.51,0.08-0.896c0.234-0.263,0.512-0.757,0.612-1.088C86.041,191.037,86.256,190.967,86.741,191.451
		L86.741,191.451L86.741,191.451z"/>
	<path fill="#FFFFFF" d="M73.736,194.867c-0.192,0.772-1.261,0.917-1.815,0.247c-0.397-0.479-0.416-0.45,0.824-1.203
		c0.825-0.502,0.978-0.523,1.061-0.146C73.858,194.004,73.825,194.51,73.736,194.867L73.736,194.867L73.736,194.867z"/>
	<path fill="#054C29" d="M76.735,192.773c-0.215,0.35,0.611,1.377,1.106,1.377c0.497,0,1.09-0.82,0.799-1.104
		C78.2,192.615,76.943,192.435,76.735,192.773L76.735,192.773L76.735,192.773z"/>
	<path fill="#054C29" d="M79.084,193.848c-0.388,0.937-0.31,1.718,0.19,1.887c0.355,0.12,1.185-1.474,1.185-2.272
		C80.459,192.707,79.44,192.994,79.084,193.848L79.084,193.848L79.084,193.848z"/>
	<path fill="#FFFFFF" d="M103.604,193.793c0,0.352-0.367,1.143-0.826,1.776c-0.817,1.13-0.827,1.135-0.827,0.386
		c0-0.418,0.204-1.445,0.455-2.302c0.415-1.402,0.489-1.494,0.828-1.019C103.442,192.932,103.604,193.436,103.604,193.793
		L103.604,193.793L103.604,193.793z"/>
	<path fill="#FFFFFF" d="M111.441,193.021c0.225,0.715-0.206,1.497-1.225,2.228c-0.964,0.688-1.042,1.421-0.192,1.799
		c0.785,0.348,0.77,1.023-0.028,1.373c-0.502,0.219-0.6,0.428-0.468,1.009c0.093,0.412,0.045,0.802-0.11,0.899
		c-0.413,0.257-1.122,1.813-0.827,1.813c0.148,0,0.35-0.192,0.432-0.413c0.207-0.552,1.424-0.552,1.638,0
		c0.206,0.536-0.525,1.118-1.959,1.562c-0.604,0.187-1.485,0.749-1.955,1.25c-0.466,0.495-1.067,0.908-1.324,0.908
		c-0.403,0-0.384-0.109,0.132-0.798c0.62-0.828,0.555-1.406-0.158-1.406c-0.734,0-0.413-0.574,0.413-0.741
		c0.58-0.118,0.827-0.316,0.827-0.664c0-0.552-0.405-0.698-0.685-0.247c-0.272,0.439-1.175,0.331-1.367-0.166
		c-0.103-0.268,0.04-0.717,0.331-1.048c0.681-0.771,1.188-1.997,1.014-2.451c-0.082-0.215-0.478-0.542-0.89-0.738
		c-0.814-0.384-0.883-0.323,1.24-1.11c0.578-0.215,0.979-0.622,1.169-1.184c0.224-0.659,0.365-0.777,0.62-0.522
		c0.498,0.498,0.819,0.386,0.627-0.221c-0.2-0.634,0.367-0.763,0.607-0.137c0.254,0.661,0.618,0.468,1.039-0.552
		C110.783,192.388,111.191,192.224,111.441,193.021L111.441,193.021L111.441,193.021z"/>
	<path fill="#FFFFFF" d="M102.86,198.035l0.744,0.854l-0.936,1.971c-0.512,1.074-1.219,2.814-1.558,3.83
		c-0.478,1.433-0.74,1.858-1.143,1.858c-0.75,0-1.161-1.238-0.664-2.01c0.213-0.333,0.605-1.351,0.871-2.26
		c0.265-0.909,0.637-1.902,0.825-2.205c0.187-0.298,0.434-1.087,0.538-1.721c0.105-0.636,0.282-1.171,0.386-1.171
		C102.029,197.183,102.453,197.568,102.86,198.035L102.86,198.035L102.86,198.035z"/>
	<path fill="#FFFFFF" d="M109.663,205.116c0.61,1.347-0.246,2.057-1.761,1.463c-0.44-0.173-0.447-0.233-0.056-0.553
		c0.248-0.2,0.442-0.771,0.442-1.296c0-0.854,0.047-0.907,0.538-0.604C109.117,204.305,109.499,204.759,109.663,205.116
		L109.663,205.116L109.663,205.116z"/>
	<path fill="#054C29" d="M106.487,197.183c-0.257,0.412,0.093,0.825,0.7,0.825c0.357,0,0.55-0.192,0.55-0.55
		C107.736,196.878,106.805,196.673,106.487,197.183L106.487,197.183L106.487,197.183z"/>
	<path fill="#054C29" d="M106.8,199.027c-0.363,0.363-0.138,0.635,0.523,0.635c0.441,0,0.688-0.15,0.688-0.414
		C108.012,198.835,107.151,198.679,106.8,199.027L106.8,199.027L106.8,199.027z"/>
	<path fill="#054C29" d="M106.551,200.134c-0.247,0.057-0.468,0.281-0.468,0.478c0,0.243,0.195,0.323,0.552,0.228
		C107.678,200.567,107.6,199.898,106.551,200.134L106.551,200.134L106.551,200.134z"/>
	<path fill="#FFFFFF" d="M128.705,195.55c0.388,0.21,0.523,0.571,0.523,1.398c0,0.964,0.057,1.068,0.414,0.778
		c0.447-0.367,1.238-0.187,1.238,0.281c0,0.173-0.357,0.508-0.826,0.771c-0.497,0.282-0.827,0.7-0.827,1.048
		c0,0.459,0.221,0.612,1.074,0.752c1.847,0.297,2.355,1.837,0.607,1.837c-0.607,0-0.786-0.11-0.676-0.412
		c0.099-0.271-0.11-0.515-0.606-0.702c-0.413-0.158-0.776-0.253-0.799-0.207c-0.023,0.045-0.289,0.577-0.592,1.185
		c-0.33,0.662-0.848,1.206-1.295,1.359c-1.13,0.395-1.238-0.015-0.271-1.028c0.947-0.993,1.576-2.095,1.339-2.344
		c-0.088-0.091-0.626,0.102-1.207,0.428c-1.019,0.577-1.055,0.579-1.371,0.069c-0.388-0.628-0.061-0.953,1.234-1.23
		c1.339-0.285,1.512-0.67,1.063-2.38C127.223,195.225,127.44,194.869,128.705,195.55L128.705,195.55L128.705,195.55z"/>
	<path fill="#FFFFFF" d="M145.609,190.472c0.12,0.47,0.036,0.864-0.249,1.186c-0.244,0.275-0.35,0.683-0.249,0.95
		c0.271,0.718-0.395,1.326-1.06,0.971c-0.276-0.148-0.451-0.392-0.371-0.516c0.083-0.13-0.027-0.744-0.25-1.377
		c-0.355-1.02-0.354-1.162,0.016-1.309c0.218-0.09,0.348-0.333,0.271-0.524c-0.207-0.531,0.086-0.64,0.94-0.347
		C145.126,189.666,145.5,190.046,145.609,190.472L145.609,190.472L145.609,190.472z"/>
	<path fill="#FFFFFF" d="M148.295,183.312c0.58,0.52,0.667,1.345,0.166,1.548c-0.211,0.084-0.166,0.156,0.11,0.172
		c0.257,0.015,0.638-0.318,0.841-0.73c0.27-0.552,0.551-0.736,1.032-0.682c1.295,0.148,1.82,1.28,0.938,2.021
		c-0.417,0.348-0.845,1.21-1.084,2.174c-0.055,0.226-0.181,0.688-0.277,1.02c-0.21,0.717,0.103,0.806,0.57,0.165
		c0.265-0.359,0.433-0.38,0.928-0.11c0.676,0.367,0.59,1.185-0.287,2.728c-0.987,1.736-0.426,2.885,0.921,1.887
		c0.69-0.51,0.836-0.534,1.061-0.177c0.188,0.296,0.068,0.568-0.426,0.974c-0.861,0.699-0.861,0.871,0.004,2.14
		c0.808,1.185,0.846,1.634,0.188,2.202c-0.667,0.578-1.818,0.721-2.562,0.317l-0.633-0.344l0.88-0.453
		c0.964-0.496,1.027-0.669,0.5-1.392c-0.335-0.46-0.428-0.415-1.261,0.633c-0.899,1.13-1.717,1.449-2.107,0.825
		c-0.112-0.176,0.278-0.688,0.94-1.233c1.213-1.001,1.451-1.819,0.825-2.815c-0.27-0.432-0.21-0.743,0.331-1.763
		c0.646-1.214,0.646-1.824,0.002-1.427c-0.167,0.103-0.787,1.15-1.383,2.336c-1.55,3.085-2.314,3.912-3.522,3.81
		c-1.295-0.108-1.389-0.575-0.25-1.248c0.966-0.569,3.5-3.623,3.5-4.217c0-0.215-0.234-0.271-0.675-0.163
		c-0.523,0.127-0.641,0.068-0.523-0.263c0.082-0.231-0.062-0.661-0.315-0.938c-0.447-0.485-0.441-0.525,0.109-0.825
		c0.33-0.181,0.58-0.489,0.58-0.717c0-0.221,0.154-0.413,0.344-0.429c0.181-0.013,0.591-0.045,0.867-0.066
		c0.606-0.046,1.164-1.282,0.578-1.282c-0.19,0-0.512,0.192-0.688,0.413c-0.237,0.299-0.468,0.337-0.825,0.137
		c-0.36-0.197-0.541-0.159-0.655,0.139c-0.27,0.71-0.804,0.497-0.62-0.249c0.129-0.522,0.04-0.759-0.38-0.985
		c-0.717-0.388-0.468-0.833,0.47-0.833c0.681,0,0.708-0.055,0.529-1.129C146.76,182.826,147.249,182.374,148.295,183.312
		L148.295,183.312L148.295,183.312z"/>
	<path fill="#054C29" d="M154.656,26.132c-0.15,0.198-0.839,1.406-1.539,2.701l-1.269,2.341l1.075,0.618
		c1.158,0.666,2.718,0.81,3.61,0.335c0.625-0.335,1.625-2.191,1.625-3.019c0-0.979-0.744-2.046-1.874-2.685
		C154.992,25.691,154.992,25.691,154.656,26.132L154.656,26.132L154.656,26.132z"/>
	<path fill="#054C29" d="M56.104,37.981c0.55,1.267,1.166,2.691,1.383,3.195c0.428,0.993,0.601,0.958,2.254-0.426l0.938-0.785
		l-2.44-1.943c-1.349-1.075-2.592-2.028-2.783-2.134C55.265,35.78,55.554,36.713,56.104,37.981L56.104,37.981L56.104,37.981z"/>
	<path fill="#054C29" d="M104.431,37.276c-0.382,0.055-1.792,0.231-3.169,0.399C80.569,40.18,61.166,52.483,49.331,70.603
		c-1.086,1.662-2.996,5.097-4.272,7.688c-3.258,6.609-5.16,12.372-6.5,19.7c-0.548,3.005-1.282,10.354-1.054,10.582
		c0.076,0.077,0.772-0.064,1.571-0.317l1.432-0.455v-1.818c0-2.395,0.879-8.266,1.799-12.014c2.44-9.945,7.303-19.728,13.815-27.8
		c2.499-3.099,7.695-8.289,10.837-10.826c8.052-6.504,19.505-11.923,29.481-13.943c5.913-1.198,8.1-1.405,14.74-1.394
		c7.302,0.012,10.541,0.401,17.083,2.054c9.313,2.351,17.618,6.375,25.735,12.469c3.033,2.278,9.631,8.718,12.062,11.776
		c9.072,11.413,14.7,25.763,15.434,39.347l0.167,3.084h1.503h1.5l-0.192-2.699c-1.352-19.012-9.007-35.405-22.704-48.622
		c-11.697-11.288-26.534-18.176-43.147-20.036C116.333,37.122,106.005,37.047,104.431,37.276L104.431,37.276L104.431,37.276z"/>
	<path fill="#054C29" d="M58.382,164.614c0.439,0.81,5.27,5.328,7.75,7.248c8.406,6.51,20.914,11.572,33.367,13.507
		c5.704,0.885,16.504,0.893,22.151,0.016c10.939-1.7,20.663-5.243,29.62-10.796c1.968-1.219,10.636-7.611,12.674-9.348l0.964-0.82
		l-2.286-0.015c-1.269-0.007-2.521,0.11-2.811,0.263c-0.287,0.15-2.233,1.592-4.298,3.186c-10.029,7.728-21.657,12.709-34.139,14.62
		c-4.627,0.71-15.779,0.715-20.113,0.01c-11.931-1.942-22.195-5.686-29.757-10.853c-3.142-2.147-4.553-3.242-7.604-5.903
		l-1.847-1.612h-1.97C58.292,164.116,58.139,164.162,58.382,164.614L58.382,164.614L58.382,164.614z"/>
	<path fill="#1C2C6F" d="M108.012,57.763c0,0.496,0.194,0.551,1.928,0.551c1.737,0,1.928-0.056,1.928-0.551
		c0-0.495-0.191-0.55-1.928-0.55C108.206,57.213,108.012,57.268,108.012,57.763L108.012,57.763L108.012,57.763z"/>
	<path fill="#1C2C6F" d="M107.217,59.996c-0.457,1.295-0.386,1.851,0.327,2.562l0.662,0.662l-0.704,2.025
		c-0.587,1.693-0.702,2.521-0.702,5.056c0,1.708,0.162,3.602,0.371,4.34l0.373,1.308h2.301c2.26,0,2.306-0.013,2.593-0.743
		c0.989-2.508,0.843-8.651-0.259-10.884l-0.529-1.075l0.633-0.413c0.811-0.528,1.025-1.653,0.537-2.811l-0.371-0.88h-2.467h-2.467
		L107.217,59.996L107.217,59.996z"/>
	<path fill="#1C2C6F" d="M94.181,77.767c-0.078,2.231-0.04,2.425,0.537,2.795c0.563,0.363,0.62,0.62,0.62,2.798v2.396l-1.571,0.772
		c-0.854,0.418-2.205,0.828-2.962,0.896c-1.183,0.105-1.666-0.017-3.237-0.818c-2.149-1.096-4.321-2.747-5.144-3.908l-0.586-0.826
		v1.114c0,0.62,0.192,2.247,0.432,3.652c0.747,4.38,0.082,5.797-3.188,6.778c-3.003,0.9-5.744,0.462-8.596-1.375
		c-1.682-1.083-1.824-1.129-1.596-0.527c1.12,2.948,3.845,6.642,5.7,7.728c0.917,0.535,1.531,0.677,2.934,0.677
		c1.571,0,1.937-0.108,3.142-0.924c0.751-0.508,2.714-1.468,4.367-2.134l3.003-1.214l22.911-0.068l22.91-0.069l2.715,0.978
		c1.487,0.537,3.436,1.421,4.311,1.957c1.506,0.921,1.695,0.967,3.266,0.784c1.46-0.167,1.866-0.358,3.266-1.535
		c1.813-1.521,2.188-2.018,3.828-5.05c1.191-2.204,1.149-2.282-0.523-0.966c-1.919,1.509-6.143,2.039-9.45,1.183
		c-3.306-0.856-4.124-2.126-3.398-5.287c0.235-1.027,0.496-2.699,0.588-3.773l0.165-1.929l-0.685,0.991
		c-0.774,1.122-3.062,2.938-4.854,3.855c-1.604,0.822-4.078,0.797-6.5-0.061l-1.765-0.626v-2.412c0-2.368,0.015-2.419,0.841-3.003
		c0.835-0.587,0.84-0.604,0.759-2.837l-0.084-2.244l-1.955-0.083l-1.958-0.082l-0.262,0.909l-0.261,0.909l-4.464,0.068
		c-3.857,0.059-4.464,0.013-4.464-0.344c0-0.342-0.468-0.413-2.756-0.413c-2.259,0-2.754,0.074-2.754,0.413
		c0,0.35-0.674,0.413-4.368,0.413h-4.367l-0.263-0.896c-0.258-0.888-0.274-0.896-2.23-0.978l-1.971-0.082L94.181,77.767
		L94.181,77.767z"/>
	<path fill="#1C2C6F" d="M47.823,100.648c-2.452,4.74-2.809,5.282-4.587,6.954c-2.625,2.471-4.766,3.366-7.549,3.161
		c-3.41-0.252-5.346-1.189-9.369-4.532c-1.984-1.649-3.618-2.94-3.663-2.895c-0.293,0.301,2.132,6.971,3.277,9.01
		c1.64,2.921,4.586,5.841,7.165,7.102l1.763,0.862h75.055h75.055l2.231-1.294c5.219-3.023,7.779-6.311,9.53-12.235
		c0.579-1.958,0.988-3.555,0.913-3.555c-0.076,0-1.736,1.327-3.693,2.951c-4.049,3.365-5.615,4.152-8.981,4.518
		c-2.067,0.224-2.419,0.187-4.134-0.457c-1.524-0.571-2.258-1.086-3.939-2.756c-1.917-1.904-2.246-2.41-4.547-7.012
		c-1.364-2.728-2.541-4.958-2.617-4.958c-0.076,0-1.286,2.26-2.701,5.042c-2.338,4.601-2.735,5.211-4.546,6.985
		c-3.455,3.386-6.639,4.052-11.407,2.387c-1.659-0.58-2.575-1.189-5.607-3.724c-1.983-1.66-3.659-2.988-3.705-2.935
		c-0.046,0.053,0.374,1.64,0.936,3.54c0.833,2.811,1.293,3.85,2.508,5.649c0.818,1.214,1.995,2.764,2.617,3.444
		c0.627,0.688,1.29,1.454,1.487,1.723c0.341,0.459-1.569,0.481-39.235,0.481H70.486l1.418-1.584
		c0.788-0.879,2.144-2.646,3.045-3.968c1.387-2.035,1.769-2.879,2.604-5.772c0.54-1.874,0.928-3.433,0.867-3.486
		c-0.061-0.054-1.681,1.223-3.61,2.841c-4.022,3.376-5.666,4.194-9.146,4.55c-2.067,0.212-2.362,0.177-3.983-0.475
		c-1.173-0.47-2.409-1.296-3.76-2.507c-1.941-1.742-2.101-1.983-4.616-6.999c-1.436-2.864-2.653-5.192-2.714-5.192
		C50.531,95.512,49.291,97.811,47.823,100.648L47.823,100.648L47.823,100.648z"/>
	<path fill="#1C2C6F" d="M102.434,97.467c-0.268,0.154-0.483,0.497-0.483,0.772c0,0.981,0.633,1.143,4.161,1.067
		c3.334-0.074,3.418-0.091,3.509-0.709c0.181-1.238-0.314-1.43-3.647-1.417C104.294,97.186,102.698,97.316,102.434,97.467
		L102.434,97.467L102.434,97.467z"/>
	<path fill="#1C2C6F" d="M112.188,97.398c-0.206,0.129-0.33,0.591-0.276,1.033l0.097,0.799l3.416,0.076
		c3.389,0.072,4.162-0.099,4.162-0.93c0-0.966-0.799-1.211-3.941-1.211C113.937,97.165,112.392,97.269,112.188,97.398
		L112.188,97.398L112.188,97.398z"/>
	<path fill="#1C2C6F" d="M122.066,97.564c-0.189,0.227-0.29,0.675-0.234,1.033c0.092,0.612,0.205,0.637,3.264,0.715
		c3.886,0.099,4.409-0.01,4.409-0.907c0-1.006-0.771-1.24-4.078-1.24C123.111,97.165,122.316,97.259,122.066,97.564L122.066,97.564
		L122.066,97.564z"/>
	<path fill="#1C2C6F" d="M92.666,97.743c-0.468,0.468-0.447,0.938,0.064,1.46c0.342,0.35,1.065,0.441,3.517,0.441
		c1.708,0,3.252-0.104,3.458-0.233c0.206-0.129,0.329-0.594,0.276-1.035l-0.095-0.799l-3.444-0.082
		C93.988,97.437,92.901,97.507,92.666,97.743L92.666,97.743L92.666,97.743z"/>
	<path fill="#1C2C6F" d="M87.348,98.038c-4.821,1.337-5.08,1.481-4.772,2.653c0.209,0.798,0.749,0.844,3.119,0.27
		c3.416-0.828,4.409-1.273,4.409-1.979C90.104,97.77,89.305,97.495,87.348,98.038L87.348,98.038L87.348,98.038z"/>
	<path fill="#1C2C6F" d="M132.425,97.908c-0.373,0.373-0.165,1.723,0.303,1.97c0.272,0.143,1.916,0.618,3.623,1.046
		c3.087,0.776,3.132,0.78,3.513,0.263c0.546-0.744,0.491-1.464-0.137-1.801c-0.786-0.422-5.567-1.67-6.393-1.67
		C132.948,97.716,132.528,97.803,132.425,97.908L132.425,97.908L132.425,97.908z"/>
	<polygon fill="#1C2C6F" points="56.805,105.086 57.728,106.119 65.581,106.037 73.434,105.953 74.535,105.018 75.638,104.08 
		65.759,104.066 55.883,104.053 56.805,105.086 	"/>
	<path fill="#1C2C6F" d="M78.972,104.673c-0.088,0.329-0.166,0.779-0.166,0.964c0,0.272,6.474,0.344,31.41,0.344
		c24.937,0,31.41-0.072,31.41-0.344c0-0.185-0.076-0.635-0.164-0.964l-0.165-0.62h-31.082H79.138L78.972,104.673L78.972,104.673z"/>
	<polygon fill="#1C2C6F" points="145.347,105.031 146.45,105.981 154.537,105.913 162.624,105.843 163.325,104.947 164.026,104.053 
		154.138,104.066 144.245,104.08 145.347,105.031 	"/>
	<path fill="#1C2C6F" d="M78.173,107.635c-0.136,0.549-0.013,0.551,31.948,0.551c30.417,0,32.08-0.024,32.001-0.483
		c-0.078-0.454-1.859-0.485-31.948-0.551C78.489,107.083,78.31,107.087,78.173,107.635L78.173,107.635L78.173,107.635z"/>
	<path fill="#1C2C6F" d="M148.654,107.758c0.814,0.666,0.909,0.675,6.227,0.689l5.399,0.015l0.634-0.69l0.635-0.688h-6.862h-6.86
		L148.654,107.758L148.654,107.758z"/>
	<path fill="#1C2C6F" d="M59.382,107.91c0.464,0.516,0.839,0.552,5.938,0.552c5.013,0,5.491-0.044,6.088-0.539l0.648-0.536
		l-6.586-0.015C58.913,107.358,58.888,107.36,59.382,107.91L59.382,107.91L59.382,107.91z"/>
	<path fill="#1C2C6F" d="M77.015,110.375c-0.603,1.196-0.688,1.71-0.688,4.134v2.769h1.24h1.24v-4.133
		c0-3.939-0.027-4.133-0.552-4.133C77.876,109.012,77.489,109.439,77.015,110.375L77.015,110.375L77.015,110.375z"/>
	<polygon fill="#1C2C6F" points="79.634,113.145 79.634,117.277 80.874,117.277 82.112,117.277 82.112,113.145 82.112,109.012 
		80.874,109.012 79.634,109.012 79.634,113.145 	"/>
	<polygon fill="#1C2C6F" points="82.939,113.145 82.939,117.277 84.179,117.277 85.419,117.277 85.419,113.145 85.419,109.012 
		84.179,109.012 82.939,109.012 82.939,113.145 	"/>
	<polygon fill="#1C2C6F" points="86.245,113.145 86.245,117.277 87.348,117.277 88.449,117.277 88.449,113.145 88.449,109.012 
		87.348,109.012 86.245,109.012 86.245,113.145 	"/>
	<polygon fill="#1C2C6F" points="89.552,113.145 89.552,117.277 90.653,117.277 91.757,117.277 91.757,113.145 91.757,109.012 
		90.653,109.012 89.552,109.012 89.552,113.145 	"/>
	<polygon fill="#1C2C6F" points="92.584,113.145 92.584,117.277 93.822,117.277 95.062,117.277 95.062,113.145 95.062,109.012 
		93.822,109.012 92.584,109.012 92.584,113.145 	"/>
	<polygon fill="#1C2C6F" points="95.89,113.145 95.89,117.277 97.129,117.277 98.37,117.277 98.37,113.145 98.37,109.012 
		97.129,109.012 95.89,109.012 95.89,113.145 	"/>
	<polygon fill="#1C2C6F" points="99.195,113.145 99.195,117.277 100.435,117.277 101.675,117.277 101.675,113.145 101.675,109.012 
		100.435,109.012 99.195,109.012 99.195,113.145 	"/>
	<polygon fill="#1C2C6F" points="102.502,113.145 102.502,117.277 103.604,117.277 104.707,117.277 104.707,113.145 
		104.707,109.012 103.604,109.012 102.502,109.012 102.502,113.145 	"/>
	<polygon fill="#1C2C6F" points="105.808,113.145 105.808,117.277 106.911,117.277 108.012,117.277 108.012,113.145 
		108.012,109.012 106.911,109.012 105.808,109.012 105.808,113.145 	"/>
	<polygon fill="#1C2C6F" points="108.839,113.145 108.839,117.277 110.079,117.277 111.32,117.277 111.32,113.145 111.32,109.012 
		110.079,109.012 108.839,109.012 108.839,113.145 	"/>
	<polygon fill="#1C2C6F" points="112.146,113.145 112.146,117.277 113.385,117.277 114.625,117.277 114.625,113.145 
		114.625,109.012 113.385,109.012 112.146,109.012 112.146,113.145 	"/>
	<polygon fill="#1C2C6F" points="115.453,113.145 115.453,117.277 116.692,117.277 117.933,117.277 117.933,113.145 
		117.933,109.012 116.692,109.012 115.453,109.012 115.453,113.145 	"/>
	<polygon fill="#1C2C6F" points="118.758,113.145 118.758,117.277 119.861,117.277 120.962,117.277 120.962,113.145 
		120.962,109.012 119.861,109.012 118.758,109.012 118.758,113.145 	"/>
	<polygon fill="#1C2C6F" points="122.066,113.145 122.066,117.277 123.167,117.277 124.27,117.277 124.27,113.145 124.27,109.012 
		123.167,109.012 122.066,109.012 122.066,113.145 	"/>
	<polygon fill="#1C2C6F" points="125.095,113.145 125.095,117.277 126.335,117.277 127.575,117.277 127.575,113.145 
		127.575,109.012 126.335,109.012 125.095,109.012 125.095,113.145 	"/>
	<polygon fill="#1C2C6F" points="128.402,113.145 128.402,117.277 129.643,117.277 130.881,117.277 130.881,113.145 
		130.881,109.012 129.643,109.012 128.402,109.012 128.402,113.145 	"/>
	<polygon fill="#1C2C6F" points="131.708,113.145 131.708,117.277 132.948,117.277 134.188,117.277 134.188,113.145 
		134.188,109.012 132.948,109.012 131.708,109.012 131.708,113.145 	"/>
	<polygon fill="#1C2C6F" points="135.016,113.145 135.016,117.277 136.117,117.277 137.22,117.277 137.22,113.145 137.22,109.012 
		136.117,109.012 135.016,109.012 135.016,113.145 	"/>
	<polygon fill="#1C2C6F" points="138.045,113.145 138.045,117.277 139.285,117.277 140.526,117.277 140.526,113.145 
		140.526,109.012 139.285,109.012 138.045,109.012 138.045,113.145 	"/>
	<path fill="#1C2C6F" d="M141.353,113.145v4.133h1.238h1.24v-2.864c0-3.528-0.621-5.401-1.79-5.401h-0.688V113.145L141.353,113.145z
		"/>
	<path fill="#1C2C6F" d="M74.232,114.385c-0.836,1.103-1.097,1.67-1.006,2.191c0.109,0.612,0.263,0.701,1.201,0.701h1.074v-2.204
		c0-1.211-0.033-2.197-0.07-2.188C75.393,112.892,74.86,113.56,74.232,114.385L74.232,114.385L74.232,114.385z"/>
	<path fill="#1C2C6F" d="M144.658,115.073v2.204h1.24c1.075,0,1.241-0.076,1.241-0.578c0-0.497-2.064-3.83-2.37-3.83
		C144.708,112.869,144.658,113.862,144.658,115.073L144.658,115.073L144.658,115.073z"/>
	<path fill="#1C2C6F" d="M108.563,121.137c0,0.18-12.178,0.273-35.957,0.273H36.651v1.654v1.653h16.807
		c14.769,0,16.808,0.05,16.808,0.412c0,0.363-2.067,0.415-16.946,0.415H36.375v12.246v12.248l-1.942,0.082l-1.944,0.082l-1.75,3.376
		l-1.75,3.376l20.542-0.068l20.54-0.071l2.121-4.82l2.122-4.821l-1.723-0.084c-1.542-0.075-1.708-0.138-1.584-0.621
		c0.137-0.528,0.675-0.535,40.902-0.535c38.685,0,40.762,0.024,40.682,0.48c-0.07,0.418-0.468,0.495-2.919,0.564
		c-1.571,0.047-2.8,0.195-2.752,0.332c0.418,1.185,4.545,9.35,4.763,9.418c0.152,0.049,9.423,0.026,20.582-0.05l20.307-0.139
		l-2.123-3.374l-2.121-3.375h-2.273h-2.273v-12.124v-12.122l-16.712-0.07c-13.06-0.053-16.737-0.144-16.833-0.412
		c-0.099-0.272,3.319-0.345,16.434-0.345h16.561v-1.653v-1.654H147.84c-23.31,0-35.448-0.094-35.556-0.273
		c-0.089-0.15-0.979-0.275-1.943-0.275C109.349,120.861,108.563,120.982,108.563,121.137L108.563,121.137L108.563,121.137z"/>
	<path fill="#FFFFFF" d="M85.971,125.13c0,0.358-0.909,0.415-6.613,0.415c-5.704,0-6.613-0.057-6.613-0.415
		c0-0.354,0.909-0.412,6.613-0.412C85.062,124.718,85.971,124.775,85.971,125.13L85.971,125.13L85.971,125.13z"/>
	<path fill="#FFFFFF" d="M90.041,125.075c-0.173,0.525-1.592,0.597-1.592,0.084c0-0.299,0.275-0.441,0.855-0.441
		C89.854,124.718,90.117,124.845,90.041,125.075L90.041,125.075L90.041,125.075z"/>
	<path fill="#FFFFFF" d="M108.563,125.13c0,0.361-1.006,0.405-8.032,0.345c-6.116-0.051-8.06-0.15-8.155-0.412
		c-0.097-0.271,1.64-0.345,8.032-0.345C107.516,124.718,108.563,124.771,108.563,125.13L108.563,125.13L108.563,125.13z"/>
	<path fill="#FFFFFF" d="M128.608,125.063c-0.095,0.265-1.97,0.344-8.197,0.344c-6.227,0-8.1-0.079-8.195-0.344
		c-0.099-0.271,1.666-0.345,8.195-0.345C126.942,124.718,128.705,124.792,128.608,125.063L128.608,125.063L128.608,125.063z"/>
	<path fill="#FFFFFF" d="M132.536,125.144c0,0.301-0.221,0.401-0.744,0.341c-1.074-0.126-1.167-0.767-0.11-0.767
		C132.26,124.718,132.536,124.854,132.536,125.144L132.536,125.144L132.536,125.144z"/>
	<path fill="#FFFFFF" d="M147.963,125.13c0,0.356-0.909,0.415-6.474,0.415s-6.474-0.059-6.474-0.415
		c0-0.354,0.909-0.412,6.474-0.412S147.963,124.775,147.963,125.13L147.963,125.13L147.963,125.13z"/>
	<path fill="#FFFFFF" d="M70.265,135.285c0,4.435,0.082,8.479,0.179,8.953c0.177,0.856,0.166,0.868-0.825,0.868h-1.007v-8.954
		v-8.955h0.826h0.827V135.285L70.265,135.285z"/>
	<path fill="#FFFFFF" d="M84.11,129.347l1.861,2.121v6.199c0,3.417,0.074,6.479,0.166,6.819l0.164,0.62h-6.942
		c-6.227,0-6.927-0.046-6.778-0.44c0.091-0.243,0.165-3.319,0.165-6.82v-6.378l1.955-2.136l1.958-2.135l2.795,0.014l2.798,0.014
		L84.11,129.347L84.11,129.347z"/>
	<path fill="#FFFFFF" d="M90.159,136.152l0.082,8.954H89.18c-0.964,0-1.044-0.056-0.894-0.62c0.089-0.341,0.164-4.381,0.164-8.955
		v-8.334h0.814h0.812L90.159,136.152L90.159,136.152z"/>
	<polygon fill="#FFFFFF" points="126.584,129.318 128.54,131.44 128.679,138.273 128.815,145.106 123.235,145.106 117.657,145.106 
		117.657,138.355 117.657,131.606 110.355,131.606 103.054,131.606 103.054,138.355 103.054,145.106 97.61,145.106 92.169,145.106 
		92.308,138.273 92.445,131.44 94.347,129.318 96.247,127.197 110.437,127.197 124.627,127.197 126.584,129.318 	"/>
	<path fill="#FFFFFF" d="M132.536,135.531c0,4.574,0.074,8.614,0.165,8.955c0.15,0.564,0.068,0.62-0.895,0.62h-1.062l0.084-8.954
		l0.082-8.955h0.812h0.814V135.531L132.536,135.531z"/>
	<path fill="#FFFFFF" d="M145.966,129.387l1.997,2.165v6.778v6.776h-6.639h-6.639l0.165-0.62c0.089-0.341,0.166-3.416,0.166-6.832
		v-6.214l1.955-2.122l1.957-2.121l2.52,0.014l2.522,0.014L145.966,129.387L145.966,129.387z"/>
	<polygon fill="#FFFFFF" points="152.648,136.152 152.648,145.106 151.408,145.106 150.168,145.106 150.168,136.152 
		150.168,127.197 151.408,127.197 152.648,127.197 152.648,136.152 	"/>
	<path fill="#FFFFFF" d="M45.965,130.394c0.095,1.31-0.194,1.488-2.425,1.488c-2.204,0-2.48-0.175-2.48-1.57v-1.214l2.41,0.084
		l2.412,0.081L45.965,130.394L45.965,130.394z"/>
	<path fill="#FFFFFF" d="M55.056,130.394c0.099,1.319-0.192,1.488-2.562,1.488c-2.122,0-2.617-0.209-2.617-1.103
		c0-1.597,0.137-1.677,2.728-1.593l2.37,0.076L55.056,130.394L55.056,130.394z"/>
	<path fill="#FFFFFF" d="M63.376,130.338c0,0.717-0.146,1.263-0.358,1.333c-0.606,0.206-2.948,0.244-3.775,0.062
		c-0.771-0.17-0.826-0.265-0.826-1.395v-1.212h2.479h2.48V130.338L63.376,130.338z"/>
	<path fill="#FFFFFF" d="M161.465,130.338c0,0.717-0.146,1.263-0.357,1.333c-0.606,0.206-2.948,0.244-3.775,0.062
		c-0.77-0.17-0.827-0.265-0.827-1.395v-1.212h2.48h2.479V130.338L161.465,130.338z"/>
	<path fill="#FFFFFF" d="M170.503,130.435c0.044,0.634,0.044,1.172,0,1.172c-0.046,0-0.73,0.073-1.529,0.166
		c-0.799,0.09-1.879,0.083-2.412-0.016c-0.943-0.176-0.964-0.205-0.964-1.419v-1.24l2.412,0.084l2.41,0.081L170.503,130.435
		L170.503,130.435z"/>
	<path fill="#FFFFFF" d="M179.052,130.228c0.118,1.246-0.476,1.654-2.406,1.654c-2.452,0-2.782-0.165-2.782-1.379
		c0-0.551,0.089-1.106,0.194-1.211c0.105-0.107,1.253-0.156,2.548-0.11l2.354,0.081L179.052,130.228L179.052,130.228z"/>
	<path fill="#FFFFFF" d="M117.105,138.77c0,6.145-0.017,6.337-0.551,6.337c-0.532,0-0.552-0.192-0.552-5.923v-5.925h-5.579h-5.58
		l0.083,5.925c0.08,5.813,0.073,5.923-0.483,5.923c-0.552,0-0.564-0.138-0.564-6.337v-6.338h6.613h6.613V138.77L117.105,138.77z"/>
	<path fill="#1C2C6F" d="M79.523,147.229c-0.907,0.905-0.799,0.909,31.271,0.909c28.546,0,31.423-0.04,31.273-0.441
		c-0.093-0.247-0.166-0.488-0.166-0.552C141.902,146.952,79.715,147.034,79.523,147.229L79.523,147.229L79.523,147.229z"/>
	<path fill="#1C2C6F" d="M78.462,149.722c-0.118,0.458,1.516,0.479,32.237,0.413c25.624-0.054,32.334-0.141,32.237-0.413
		c-0.099-0.272-6.944-0.359-32.237-0.413C80.28,149.243,78.58,149.266,78.462,149.722L78.462,149.722L78.462,149.722z"/>
	<path fill="#1C2C6F" d="M77.608,151.858c-0.135,0.365,3.649,0.411,33.159,0.411c29.51,0,33.295-0.046,33.16-0.411
		c-0.133-0.365-4.064-0.415-33.16-0.415C81.673,151.443,77.741,151.493,77.608,151.858L77.608,151.858L77.608,151.858z"/>
	<path fill="#1C2C6F" d="M76.781,153.826c-0.107,0.108-0.179,0.273-0.179,0.414c0,0.13,15.375,0.234,34.192,0.234
		c27.224,0,34.17-0.07,34.071-0.344c-0.099-0.272-7.207-0.36-34.016-0.413C92.198,153.68,76.88,153.729,76.781,153.826
		L76.781,153.826L76.781,153.826z"/>
	<path fill="#1C2C6F" d="M75.693,156.127c-0.137,0.55,0,0.552,35.102,0.552c19.371,0,35.241-0.099,35.241-0.22
		c0-0.867-0.55-0.884-35.433-0.884C76.051,155.575,75.83,155.579,75.693,156.127L75.693,156.127L75.693,156.127z"/>
	<path fill="#1C2C6F" d="M26.73,158.607c0,0.15,0.284,0.718,0.62,1.24l0.62,0.964h82.853h82.851l0.704-1.033
		c0.394-0.579,0.702-1.123,0.702-1.239c0-0.114-37.884-0.207-84.174-0.207C54.202,158.332,26.73,158.421,26.73,158.607
		L26.73,158.607L26.73,158.607z"/>
	<path fill="#1C2C6F" d="M28.756,162.396l0.649,1.033l81.445,0.068l81.448,0.07l0.522-0.758c0.285-0.414,0.613-0.913,0.717-1.103
		c0.154-0.274-16.434-0.344-82.617-0.344H28.109L28.756,162.396L28.756,162.396z"/>
	<path fill="#1C2C6F" d="M63.652,164.228c0,0.063,0.564,0.426,1.282,0.827l1.28,0.718l44.664-0.016l44.663-0.014l1.516-0.798
		l1.516-0.8l-47.459-0.013C85.02,164.125,63.652,164.167,63.652,164.228L63.652,164.228L63.652,164.228z"/>
	<path fill="#054C29" d="M92.996,170.443c-0.467,0.183-0.475,0.223-0.055,0.37c0.377,0.134,0.468,0.55,0.468,2.121
		c0,1.764-0.061,1.981-0.62,2.204c-0.476,0.19-0.234,0.25,1.033,0.25c1.268,0,1.51-0.06,1.035-0.25
		c-0.577-0.23-0.621-0.413-0.621-2.59C94.236,170.098,94.17,169.984,92.996,170.443L92.996,170.443L92.996,170.443z"/>
	<path fill="#054C29" d="M103.659,170.509c-0.508,0.51-0.386,1.566,0.221,1.887c0.531,0.28,0.523,0.314-0.192,0.938
		c-0.841,0.73-0.717,1.411,0.331,1.805c1.046,0.396,2.117,0.333,2.837-0.164c0.824-0.566,0.771-1.31-0.139-1.968l-0.743-0.54
		l0.606-0.325c0.941-0.504,0.633-1.961-0.413-1.961c-0.289,0-0.275,0.108,0.056,0.439c0.376,0.378,0.386,0.524,0.061,1.02
		c-0.544,0.833-0.862,0.854-1.715,0.118c-0.688-0.594-0.709-0.676-0.29-1.109c0.348-0.359,0.367-0.468,0.084-0.468
		C104.168,170.181,103.83,170.339,103.659,170.509L103.659,170.509L103.659,170.509z"/>
	<path fill="#FFFFFF" d="M105.836,173.416c0.854,0.51,1.036,1.303,0.357,1.563c-1.626,0.625-2.976-0.518-1.898-1.604
		C104.844,172.824,104.844,172.824,105.836,173.416L105.836,173.416L105.836,173.416z"/>
	<path fill="#054C29" d="M116.002,170.104c-2.157,0.791-1.624,3.394,0.69,3.364l0.826-0.011l-0.854-0.37
		c-1.211-0.526-1.569-1.669-0.771-2.468c0.582-0.582,1.102-0.55,1.763,0.109c0.55,0.552,0.778,2.205,0.302,2.205
		c-0.158,0-0.212,0.166-0.127,0.387c0.19,0.497-1.69,1.805-2.655,1.845c-0.412,0.017-0.508,0.077-0.233,0.151
		c0.252,0.071,0.978-0.015,1.639-0.191c2.893-0.774,3.775-4.052,1.322-4.909C116.968,169.89,116.643,169.871,116.002,170.104
		L116.002,170.104L116.002,170.104z"/>
	<path fill="#054C29" d="M126.693,170.461c-0.75,0.446-0.579,0.826,0.193,0.428c0.799-0.415,1.982-0.263,2.191,0.283
		c0.177,0.462-0.538,1.211-1.171,1.229c-0.255,0.006-0.056,0.19,0.44,0.405c1.887,0.813,1.295,2.185-0.909,2.104
		c-0.8-0.029-1.206,0.056-1.099,0.229c0.382,0.625,3.281,0.139,3.771-0.634c0.386-0.606,0.221-1.557-0.331-1.903
		c-0.496-0.31-0.5-0.354-0.078-0.823c0.705-0.786,0.134-1.441-1.327-1.527C127.712,170.211,126.949,170.306,126.693,170.461
		L126.693,170.461L126.693,170.461z"/>
</g>
<text transform="matrix(1 0 0 1 254.5176 197.6289)" font-family="'TimesNewRomanPSMT'" font-size="42.7905">WUHAN UNIVERSITY</text>
</svg>
